<?xml version="1.0" encoding="UTF-8"?>
<svg version="1.1" xmlns="http://www.w3.org/2000/svg" width="340" height="340">
    <path d="M0 0 C34.98 0 69.96 0 106 0 C106 5.61 106 11.22 106 17 C108.63613281 16.96519531 111.27226562 16.93039063 113.98828125 16.89453125 C116.53994666 16.87113856 119.09160016 16.85292037 121.64331055 16.83520508 C123.41745343 16.82011359 125.19155898 16.79963809 126.96557617 16.77368164 C129.51490487 16.73731359 132.06374059 16.72027762 134.61328125 16.70703125 C135.40712723 16.69154739 136.20097321 16.67606354 137.01887512 16.66011047 C142.45951274 16.65844573 142.45951274 16.65844573 145.00585938 18.26757812 C146.20537197 20.35788789 146.34716949 21.60881925 146.29296875 24.01171875 C146.28330078 24.76904297 146.27363281 25.52636719 146.26367188 26.30664062 C146.23853516 27.09232422 146.21339844 27.87800781 146.1875 28.6875 C146.16719727 29.88342773 146.16719727 29.88342773 146.14648438 31.10351562 C146.11117089 33.06929967 146.05736447 35.03473582 146 37 C147.19238281 36.96519531 148.38476562 36.93039063 149.61328125 36.89453125 C151.17967342 36.86639247 152.74608081 36.8390924 154.3125 36.8125 C155.49102539 36.77479492 155.49102539 36.77479492 156.69335938 36.73632812 C157.45068359 36.72666016 158.20800781 36.71699219 158.98828125 36.70703125 C160.03302612 36.68346558 160.03302612 36.68346558 161.09887695 36.65942383 C163.63553305 37.1138524 164.48945572 37.9355119 166 40 C166.34057617 41.90112305 166.34057617 41.90112305 166.29296875 44.01171875 C166.28330078 44.76904297 166.27363281 45.52636719 166.26367188 46.30664062 C166.23853516 47.09232422 166.21339844 47.87800781 166.1875 48.6875 C166.17396484 49.48478516 166.16042969 50.28207031 166.14648438 51.10351562 C166.11117089 53.06929967 166.05736447 55.03473582 166 57 C167.19238281 56.96519531 168.38476562 56.93039063 169.61328125 56.89453125 C171.17967342 56.86639247 172.74608081 56.8390924 174.3125 56.8125 C175.49102539 56.77479492 175.49102539 56.77479492 176.69335938 56.73632812 C177.45068359 56.72666016 178.20800781 56.71699219 178.98828125 56.70703125 C180.03302612 56.68346558 180.03302612 56.68346558 181.09887695 56.65942383 C183 57 183 57 184.73242188 57.99414062 C186.77593515 61.22786657 186.36518643 64.68417114 186.29296875 68.38671875 C186.28872391 69.20372757 186.28447906 70.02073639 186.28010559 70.86250305 C186.26331691 73.47117107 186.22566519 76.07906562 186.1875 78.6875 C186.17245337 80.45636905 186.15876492 82.22525021 186.14648438 83.99414062 C186.11596473 88.32996456 186.05724638 92.6641169 186 97 C191.61 97 197.22 97 203 97 C204.543328 100.086656 204.13845789 103.33579976 204.12939453 106.72265625 C204.13202301 107.91796463 204.13202301 107.91796463 204.13470459 109.13742065 C204.13911628 111.77913573 204.1361875 114.4207842 204.1328125 117.0625 C204.13348574 118.89331068 204.13445593 120.72412127 204.13571167 122.55493164 C204.13718772 126.39502817 204.13503706 130.23510147 204.13037109 134.07519531 C204.12467386 139.00513051 204.12795336 143.93501126 204.13394356 148.86494446 C204.13755167 152.6463665 204.13640943 156.42777557 204.13381577 160.209198 C204.13314719 162.02733364 204.13397251 163.84547045 204.13629532 165.66360474 C204.13882592 168.20154962 204.13497545 170.73940552 204.12939453 173.27734375 C204.13141876 174.03377167 204.13344299 174.79019958 204.13552856 175.56954956 C204.1142643 180.77147139 204.1142643 180.77147139 203 183 C197.39 183 191.78 183 186 183 C186 187.62 186 192.24 186 197 C187.19238281 196.96519531 188.38476562 196.93039063 189.61328125 196.89453125 C191.17967342 196.86639247 192.74608081 196.8390924 194.3125 196.8125 C195.09818359 196.78736328 195.88386719 196.76222656 196.69335938 196.73632812 C197.8293457 196.72182617 197.8293457 196.72182617 198.98828125 196.70703125 C200.03302612 196.68346558 200.03302612 196.68346558 201.09887695 196.65942383 C203.63553305 197.1138524 204.48945572 197.9355119 206 200 C206.34057617 201.90112305 206.34057617 201.90112305 206.29296875 204.01171875 C206.28547607 204.69451904 206.2779834 205.37731934 206.27026367 206.08081055 C206.24295166 206.94101807 206.21563965 207.80122559 206.1875 208.6875 C206.125625 211.430625 206.06375 214.17375 206 217 C211.61 217 217.22 217 223 217 C223 232.18 223 247.36 223 263 C217.39 263 211.78 263 206 263 C206.03480469 265.63613281 206.06960938 268.27226562 206.10546875 270.98828125 C206.12886144 273.53994666 206.14707963 276.09160016 206.16479492 278.64331055 C206.17988641 280.41745343 206.20036191 282.19155898 206.22631836 283.96557617 C206.26268641 286.51490487 206.27972238 289.06374059 206.29296875 291.61328125 C206.30845261 292.40712723 206.32393646 293.20097321 206.33988953 294.01887512 C206.34155427 299.45951274 206.34155427 299.45951274 204.73242188 302.00585938 C202.64211211 303.20537197 201.39118075 303.34716949 198.98828125 303.29296875 C198.23095703 303.28330078 197.47363281 303.27363281 196.69335938 303.26367188 C195.90767578 303.23853516 195.12199219 303.21339844 194.3125 303.1875 C193.51521484 303.17396484 192.71792969 303.16042969 191.89648438 303.14648438 C189.93070033 303.11117089 187.96526418 303.05736447 186 303 C186.03480469 304.19238281 186.06960938 305.38476562 186.10546875 306.61328125 C186.13360753 308.17967342 186.1609076 309.74608081 186.1875 311.3125 C186.22520508 312.49102539 186.22520508 312.49102539 186.26367188 313.69335938 C186.27333984 314.45068359 186.28300781 315.20800781 186.29296875 315.98828125 C186.3086792 316.68477783 186.32438965 317.38127441 186.34057617 318.09887695 C185.8788506 320.67626552 185.07019414 321.41087323 183 323 C180.47529602 323.36076355 180.47529602 323.36076355 177.42700195 323.34057617 C175.71556755 323.34023628 175.71556755 323.34023628 173.96955872 323.33988953 C172.12257637 323.31666374 172.12257637 323.31666374 170.23828125 323.29296875 C168.97735153 323.28872391 167.71642181 323.28447906 166.4172821 323.28010559 C163.06825057 323.26614627 159.71983242 323.23920104 156.37097168 323.20599365 C152.95244647 323.17528105 149.53385785 323.16159776 146.11523438 323.14648438 C139.40996463 323.11337212 132.70506643 323.06156651 126 323 C126 328.61 126 334.22 126 340 C110.82 340 95.64 340 80 340 C80 334.39 80 328.78 80 323 C74.53995132 323.11841336 74.53995132 323.11841336 69.08081055 323.27026367 C68.05661011 323.28150269 68.05661011 323.28150269 67.01171875 323.29296875 C66.31522217 323.3086792 65.61872559 323.32438965 64.90112305 323.34057617 C62.36446695 322.8861476 61.51054428 322.0644881 60 320 C59.65942383 318.09887695 59.65942383 318.09887695 59.70703125 315.98828125 C59.71669922 315.23095703 59.72636719 314.47363281 59.73632812 313.69335938 C59.76146484 312.90767578 59.78660156 312.12199219 59.8125 311.3125 C59.82603516 310.51521484 59.83957031 309.71792969 59.85351562 308.89648438 C59.88882911 306.93070033 59.94263553 304.96526418 60 303 C55.38 303 50.76 303 46 303 C46.03480469 304.19238281 46.06960937 305.38476562 46.10546875 306.61328125 C46.13360753 308.17967342 46.1609076 309.74608081 46.1875 311.3125 C46.21263672 312.09818359 46.23777344 312.88386719 46.26367188 313.69335938 C46.27817383 314.8293457 46.27817383 314.8293457 46.29296875 315.98828125 C46.3086792 316.68477783 46.32438965 317.38127441 46.34057617 318.09887695 C45.8861476 320.63553305 45.0644881 321.48945572 43 323 C41.09887695 323.34057617 41.09887695 323.34057617 38.98828125 323.29296875 C38.30548096 323.28547607 37.62268066 323.2779834 36.91918945 323.27026367 C36.05898193 323.24295166 35.19877441 323.21563965 34.3125 323.1875 C31.569375 323.125625 28.82625 323.06375 26 323 C26 328.61 26 334.22 26 340 C10.82 340 -4.36 340 -20 340 C-20 334.39 -20 328.78 -20 323 C-21.71098877 323.01571045 -23.42197754 323.0314209 -25.18481445 323.04760742 C-30.83656735 323.09597362 -36.48829052 323.13045003 -42.14019489 323.15543652 C-45.56713223 323.17109574 -48.99384577 323.19233804 -52.4206543 323.22631836 C-56.35983608 323.26513514 -60.29892709 323.27970716 -64.23828125 323.29296875 C-65.46960281 323.30845261 -66.70092438 323.32393646 -67.96955872 323.33988953 C-69.11051498 323.34011612 -70.25147125 323.34034271 -71.42700195 323.34057617 C-72.432939 323.34723801 -73.43887604 323.35389984 -74.47529602 323.36076355 C-77 323 -77 323 -78.82702637 321.59753418 C-80.30562919 319.58374761 -80.34890456 318.46810197 -80.29296875 315.98828125 C-80.2784668 314.85229492 -80.2784668 314.85229492 -80.26367188 313.69335938 C-80.23853516 312.90767578 -80.21339844 312.12199219 -80.1875 311.3125 C-80.17396484 310.51521484 -80.16042969 309.71792969 -80.14648438 308.89648438 C-80.11117089 306.93070033 -80.05736447 304.96526418 -80 303 C-81.19238281 303.03480469 -82.38476562 303.06960938 -83.61328125 303.10546875 C-85.17967342 303.13360753 -86.74608081 303.1609076 -88.3125 303.1875 C-89.49102539 303.22520508 -89.49102539 303.22520508 -90.69335938 303.26367188 C-91.45068359 303.27333984 -92.20800781 303.28300781 -92.98828125 303.29296875 C-93.68477783 303.3086792 -94.38127441 303.32438965 -95.09887695 303.34057617 C-97 303 -97 303 -98.73242188 302.00585938 C-100.77593515 298.77213343 -100.36518643 295.31582886 -100.29296875 291.61328125 C-100.28660149 290.38776802 -100.28660149 290.38776802 -100.28010559 289.13749695 C-100.26331691 286.52882893 -100.22566519 283.92093438 -100.1875 281.3125 C-100.17245337 279.54363095 -100.15876492 277.77474979 -100.14648438 276.00585938 C-100.11596473 271.67003544 -100.05724638 267.3358831 -100 263 C-105.61 263 -111.22 263 -117 263 C-117 247.82 -117 232.64 -117 217 C-111.39 217 -105.78 217 -100 217 C-100.11841336 211.53995132 -100.11841336 211.53995132 -100.27026367 206.08081055 C-100.27775635 205.39801025 -100.28524902 204.71520996 -100.29296875 204.01171875 C-100.3086792 203.31522217 -100.32438965 202.61872559 -100.34057617 201.90112305 C-99.8861476 199.36446695 -99.0644881 198.51054428 -97 197 C-95.09887695 196.65942383 -95.09887695 196.65942383 -92.98828125 196.70703125 C-92.23095703 196.71669922 -91.47363281 196.72636719 -90.69335938 196.73632812 C-89.90767578 196.76146484 -89.12199219 196.78660156 -88.3125 196.8125 C-87.51521484 196.82603516 -86.71792969 196.83957031 -85.89648438 196.85351562 C-83.93070033 196.88882911 -81.96526418 196.94263553 -80 197 C-80 192.38 -80 187.76 -80 183 C-85.61 183 -91.22 183 -97 183 C-98.543328 179.913344 -98.13845789 176.66420024 -98.12939453 173.27734375 C-98.13114685 172.4804715 -98.13289917 171.68359924 -98.13470459 170.86257935 C-98.13911628 168.22086427 -98.1361875 165.5792158 -98.1328125 162.9375 C-98.13348574 161.10668932 -98.13445593 159.27587873 -98.13571167 157.44506836 C-98.13718772 153.60497183 -98.13503706 149.76489853 -98.13037109 145.92480469 C-98.12467386 140.99486949 -98.12795336 136.06498874 -98.13394356 131.13505554 C-98.13755167 127.3536335 -98.13640943 123.57222443 -98.13381577 119.790802 C-98.13314719 117.97266636 -98.13397251 116.15452955 -98.13629532 114.33639526 C-98.13882592 111.79845038 -98.13497545 109.26059448 -98.12939453 106.72265625 C-98.13141876 105.96622833 -98.13344299 105.20980042 -98.13552856 104.43045044 C-98.1142643 99.22852861 -98.1142643 99.22852861 -97 97 C-91.39 97 -85.78 97 -80 97 C-80.03480469 94.36386719 -80.06960937 91.72773437 -80.10546875 89.01171875 C-80.12886144 86.46005334 -80.14707963 83.90839984 -80.16479492 81.35668945 C-80.17988641 79.58254657 -80.20036191 77.80844102 -80.22631836 76.03442383 C-80.26268641 73.48509513 -80.27972238 70.93625941 -80.29296875 68.38671875 C-80.30845261 67.59287277 -80.32393646 66.79902679 -80.33988953 65.98112488 C-80.34155427 60.54048726 -80.34155427 60.54048726 -78.73242188 57.99414062 C-76.64211211 56.79462803 -75.39118075 56.65283051 -72.98828125 56.70703125 C-72.23095703 56.71669922 -71.47363281 56.72636719 -70.69335938 56.73632812 C-69.90767578 56.76146484 -69.12199219 56.78660156 -68.3125 56.8125 C-67.11657227 56.83280273 -67.11657227 56.83280273 -65.89648438 56.85351562 C-63.93070033 56.88882911 -61.96526418 56.94263553 -60 57 C-60.03480469 55.80761719 -60.06960937 54.61523438 -60.10546875 53.38671875 C-60.13360753 51.82032658 -60.1609076 50.25391919 -60.1875 48.6875 C-60.21263672 47.90181641 -60.23777344 47.11613281 -60.26367188 46.30664062 C-60.27333984 45.54931641 -60.28300781 44.79199219 -60.29296875 44.01171875 C-60.3086792 43.31522217 -60.32438965 42.61872559 -60.34057617 41.90112305 C-59.8861476 39.36446695 -59.0644881 38.51054428 -57 37 C-55.09887695 36.65942383 -55.09887695 36.65942383 -52.98828125 36.70703125 C-52.23095703 36.71669922 -51.47363281 36.72636719 -50.69335938 36.73632812 C-49.90767578 36.76146484 -49.12199219 36.78660156 -48.3125 36.8125 C-47.11657227 36.83280273 -47.11657227 36.83280273 -45.89648438 36.85351562 C-43.93070033 36.88882911 -41.96526418 36.94263553 -40 37 C-40.03480469 35.80761719 -40.06960937 34.61523438 -40.10546875 33.38671875 C-40.13360753 31.82032658 -40.1609076 30.25391919 -40.1875 28.6875 C-40.21263672 27.90181641 -40.23777344 27.11613281 -40.26367188 26.30664062 C-40.27333984 25.54931641 -40.28300781 24.79199219 -40.29296875 24.01171875 C-40.3086792 23.31522217 -40.32438965 22.61872559 -40.34057617 21.90112305 C-40 20 -40 20 -39.00585938 18.26757812 C-35.77213343 16.22406485 -32.31582886 16.63481357 -28.61328125 16.70703125 C-27.38776802 16.71339851 -27.38776802 16.71339851 -26.13749695 16.71989441 C-23.52882893 16.73668309 -20.92093438 16.77433481 -18.3125 16.8125 C-16.54363095 16.82754663 -14.77474979 16.84123508 -13.00585938 16.85351562 C-8.67003544 16.88403527 -4.3358831 16.94275362 0 17 C0 11.39 0 5.78 0 0 Z M-79 183 C-79 187.62 -79 192.24 -79 197 C-78.67 197 -78.34 197 -78 197 C-78 192.38 -78 187.76 -78 183 C-78.33 183 -78.66 183 -79 183 Z M184 183 C184 187.62 184 192.24 184 197 C184.33 197 184.66 197 185 197 C185 192.38 185 187.76 185 183 C184.67 183 184.34 183 184 183 Z M44 301 C44 301.33 44 301.66 44 302 C49.94 302 55.88 302 62 302 C62 301.67 62 301.34 62 301 C56.06 301 50.12 301 44 301 Z " fill="#2D2623" transform="translate(117,0)" />
    <path d="M0 0 C33 0 66 0 100 0 C100 6.6 100 13.2 100 20 C113.2 20 126.4 20 140 20 C140 26.6 140 33.2 140 40 C146.6 40 153.2 40 160 40 C160 53.2 160 66.4 160 80 C166.6 80 173.2 80 180 80 C180 106.4 180 132.8 180 160 C166.8 160 153.6 160 140 160 C140 166.6 140 173.2 140 180 C126.8 180 113.6 180 100 180 C100 173.4 100 166.8 100 160 C106.6 160 113.2 160 120 160 C120 146.8 120 133.6 120 120 C106.8 120 93.6 120 80 120 C80 126.6 80 133.2 80 140 C60.2 140 40.4 140 20 140 C20 133.4 20 126.8 20 120 C6.8 120 -6.4 120 -20 120 C-20 133.2 -20 146.4 -20 160 C-13.4 160 -6.8 160 0 160 C0 166.6 0 173.2 0 180 C-13.2 180 -26.4 180 -40 180 C-40 173.4 -40 166.8 -40 160 C-53.2 160 -66.4 160 -80 160 C-80 133.6 -80 107.2 -80 80 C-73.4 80 -66.8 80 -60 80 C-60 66.8 -60 53.6 -60 40 C-53.4 40 -46.8 40 -40 40 C-40 33.4 -40 26.8 -40 20 C-26.8 20 -13.6 20 0 20 C0 13.4 0 6.8 0 0 Z " fill="#8C50CD" transform="translate(120,20)" />
    <path d="M0 0 C6.6 0 13.2 0 20 0 C20 6.6 20 13.2 20 20 C39.8 20 59.6 20 80 20 C80 33.2 80 46.4 80 60 C99.8 60 119.6 60 140 60 C140 66.6 140 73.2 140 80 C120.2 80 100.4 80 80 80 C80 86.6 80 93.2 80 100 C86.6 100 93.2 100 100 100 C100 106.6 100 113.2 100 120 C93.4 120 86.8 120 80 120 C80 126.6 80 133.2 80 140 C56.60337705 140.80578775 33.21852684 141.11159308 9.80939484 141.12338257 C7.68263799 141.12500371 5.55589177 141.1285677 3.42913818 141.13256836 C-0.58502253 141.13951196 -4.59911639 141.13698405 -8.61328125 141.1328125 C-9.83552902 141.13479645 -11.05777679 141.1367804 -12.31706238 141.13882446 C-13.43357681 141.13571259 -14.55009125 141.13260071 -15.70043945 141.12939453 C-16.67978958 141.12859894 -17.65913971 141.12780334 -18.66816711 141.12698364 C-21 141 -21 141 -23 140 C-23 134.39 -23 128.78 -23 123 C-28.61 123 -34.22 123 -40 123 C-40 122.67 -40 122.34 -40 122 C-33.73 121.67 -27.46 121.34 -21 121 C-20.67 114.07 -20.34 107.14 -20 100 C-13.4 100 -6.8 100 0 100 C0 86.8 0 73.6 0 60 C-6.6 60 -13.2 60 -20 60 C-20 66.6 -20 73.2 -20 80 C-26.6 80 -33.2 80 -40 80 C-40 66.8 -40 53.6 -40 40 C-33.4 40 -26.8 40 -20 40 C-20 33.4 -20 26.8 -20 20 C-13.4 20 -6.8 20 0 20 C0 13.4 0 6.8 0 0 Z " fill="#2E2623" transform="translate(60,180)" />
    <path d="M0 0 C34.98 0 69.96 0 106 0 C106 5.61 106 11.22 106 17 C108.63613281 16.96519531 111.27226562 16.93039063 113.98828125 16.89453125 C116.53994666 16.87113856 119.09160016 16.85292037 121.64331055 16.83520508 C123.41745343 16.82011359 125.19155898 16.79963809 126.96557617 16.77368164 C129.51490487 16.73731359 132.06374059 16.72027762 134.61328125 16.70703125 C135.40712723 16.69154739 136.20097321 16.67606354 137.01887512 16.66011047 C142.45951274 16.65844573 142.45951274 16.65844573 145.00585938 18.26757812 C146.20537197 20.35788789 146.34716949 21.60881925 146.29296875 24.01171875 C146.28330078 24.76904297 146.27363281 25.52636719 146.26367188 26.30664062 C146.23853516 27.09232422 146.21339844 27.87800781 146.1875 28.6875 C146.16719727 29.88342773 146.16719727 29.88342773 146.14648438 31.10351562 C146.11117089 33.06929967 146.05736447 35.03473582 146 37 C147.19238281 36.96519531 148.38476562 36.93039063 149.61328125 36.89453125 C151.17967342 36.86639247 152.74608081 36.8390924 154.3125 36.8125 C155.49102539 36.77479492 155.49102539 36.77479492 156.69335938 36.73632812 C157.45068359 36.72666016 158.20800781 36.71699219 158.98828125 36.70703125 C160.03302612 36.68346558 160.03302612 36.68346558 161.09887695 36.65942383 C163.63553305 37.1138524 164.48945572 37.9355119 166 40 C166.34057617 41.90112305 166.34057617 41.90112305 166.29296875 44.01171875 C166.28330078 44.76904297 166.27363281 45.52636719 166.26367188 46.30664062 C166.23853516 47.09232422 166.21339844 47.87800781 166.1875 48.6875 C166.17396484 49.48478516 166.16042969 50.28207031 166.14648438 51.10351562 C166.11117089 53.06929967 166.05736447 55.03473582 166 57 C167.19238281 56.96519531 168.38476562 56.93039063 169.61328125 56.89453125 C171.17967342 56.86639247 172.74608081 56.8390924 174.3125 56.8125 C175.49102539 56.77479492 175.49102539 56.77479492 176.69335938 56.73632812 C177.45068359 56.72666016 178.20800781 56.71699219 178.98828125 56.70703125 C180.03302612 56.68346558 180.03302612 56.68346558 181.09887695 56.65942383 C183 57 183 57 184.73242188 57.99414062 C186.77593515 61.22786657 186.36518643 64.68417114 186.29296875 68.38671875 C186.28872391 69.20372757 186.28447906 70.02073639 186.28010559 70.86250305 C186.26331691 73.47117107 186.22566519 76.07906562 186.1875 78.6875 C186.17245337 80.45636905 186.15876492 82.22525021 186.14648438 83.99414062 C186.11596473 88.32996456 186.05724638 92.6641169 186 97 C191.61 97 197.22 97 203 97 C204.543328 100.086656 204.13845789 103.33579976 204.12939453 106.72265625 C204.13202301 107.91796463 204.13202301 107.91796463 204.13470459 109.13742065 C204.13911628 111.77913573 204.1361875 114.4207842 204.1328125 117.0625 C204.13348574 118.89331068 204.13445593 120.72412127 204.13571167 122.55493164 C204.13718772 126.39502817 204.13503706 130.23510147 204.13037109 134.07519531 C204.12467386 139.00513051 204.12795336 143.93501126 204.13394356 148.86494446 C204.13755167 152.6463665 204.13640943 156.42777557 204.13381577 160.209198 C204.13314719 162.02733364 204.13397251 163.84547045 204.13629532 165.66360474 C204.13882592 168.20154962 204.13497545 170.73940552 204.12939453 173.27734375 C204.13141876 174.03377167 204.13344299 174.79019958 204.13552856 175.56954956 C204.1142643 180.77147139 204.1142643 180.77147139 203 183 C197.39 183 191.78 183 186 183 C186 187.62 186 192.24 186 197 C191.61 197 197.22 197 203 197 C203 197.33 203 197.66 203 198 C196.4 198 189.8 198 183 198 C183 165.66 183 133.32 183 100 C176.4 100 169.8 100 163 100 C163 86.8 163 73.6 163 60 C156.4 60 149.8 60 143 60 C143 53.4 143 46.8 143 40 C129.8 40 116.6 40 103 40 C103 33.4 103 26.8 103 20 C70 20 37 20 3 20 C3 26.6 3 33.2 3 40 C-10.2 40 -23.4 40 -37 40 C-37 46.6 -37 53.2 -37 60 C-43.6 60 -50.2 60 -57 60 C-57 73.2 -57 86.4 -57 100 C-63.6 100 -70.2 100 -77 100 C-77 126.4 -77 152.8 -77 180 C-70.4 180 -63.8 180 -57 180 C-57 186.6 -57 193.2 -57 200 C-63.6 200 -70.2 200 -77 200 C-77 206.6 -77 213.2 -77 220 C-83.6 220 -90.2 220 -97 220 C-97 233.2 -97 246.4 -97 260 C-90.4 260 -83.8 260 -77 260 C-77 253.4 -77 246.8 -77 240 C-70.4 240 -63.8 240 -57 240 C-57 253.2 -57 266.4 -57 280 C-63.6 280 -70.2 280 -77 280 C-77 286.93 -77 293.86 -77 301 C-82.135625 301.0309375 -82.135625 301.0309375 -87.375 301.0625 C-88.45313965 301.071604 -89.5312793 301.08070801 -90.64208984 301.09008789 C-91.48980957 301.09258545 -92.3375293 301.09508301 -93.2109375 301.09765625 C-94.51490479 301.10551147 -94.51490479 301.10551147 -95.84521484 301.11352539 C-98 301 -98 301 -100 300 C-100 287.79 -100 275.58 -100 263 C-105.61 263 -111.22 263 -117 263 C-117 247.82 -117 232.64 -117 217 C-111.39 217 -105.78 217 -100 217 C-100.11841336 211.53995132 -100.11841336 211.53995132 -100.27026367 206.08081055 C-100.27775635 205.39801025 -100.28524902 204.71520996 -100.29296875 204.01171875 C-100.3086792 203.31522217 -100.32438965 202.61872559 -100.34057617 201.90112305 C-99.8861476 199.36446695 -99.0644881 198.51054428 -97 197 C-95.09887695 196.65942383 -95.09887695 196.65942383 -92.98828125 196.70703125 C-92.23095703 196.71669922 -91.47363281 196.72636719 -90.69335938 196.73632812 C-89.90767578 196.76146484 -89.12199219 196.78660156 -88.3125 196.8125 C-87.51521484 196.82603516 -86.71792969 196.83957031 -85.89648438 196.85351562 C-83.93070033 196.88882911 -81.96526418 196.94263553 -80 197 C-80 192.38 -80 187.76 -80 183 C-85.61 183 -91.22 183 -97 183 C-98.543328 179.913344 -98.13845789 176.66420024 -98.12939453 173.27734375 C-98.13114685 172.4804715 -98.13289917 171.68359924 -98.13470459 170.86257935 C-98.13911628 168.22086427 -98.1361875 165.5792158 -98.1328125 162.9375 C-98.13348574 161.10668932 -98.13445593 159.27587873 -98.13571167 157.44506836 C-98.13718772 153.60497183 -98.13503706 149.76489853 -98.13037109 145.92480469 C-98.12467386 140.99486949 -98.12795336 136.06498874 -98.13394356 131.13505554 C-98.13755167 127.3536335 -98.13640943 123.57222443 -98.13381577 119.790802 C-98.13314719 117.97266636 -98.13397251 116.15452955 -98.13629532 114.33639526 C-98.13882592 111.79845038 -98.13497545 109.26059448 -98.12939453 106.72265625 C-98.13141876 105.96622833 -98.13344299 105.20980042 -98.13552856 104.43045044 C-98.1142643 99.22852861 -98.1142643 99.22852861 -97 97 C-91.39 97 -85.78 97 -80 97 C-80.03480469 94.36386719 -80.06960937 91.72773437 -80.10546875 89.01171875 C-80.12886144 86.46005334 -80.14707963 83.90839984 -80.16479492 81.35668945 C-80.17988641 79.58254657 -80.20036191 77.80844102 -80.22631836 76.03442383 C-80.26268641 73.48509513 -80.27972238 70.93625941 -80.29296875 68.38671875 C-80.30845261 67.59287277 -80.32393646 66.79902679 -80.33988953 65.98112488 C-80.34155427 60.54048726 -80.34155427 60.54048726 -78.73242188 57.99414062 C-76.64211211 56.79462803 -75.39118075 56.65283051 -72.98828125 56.70703125 C-72.23095703 56.71669922 -71.47363281 56.72636719 -70.69335938 56.73632812 C-69.90767578 56.76146484 -69.12199219 56.78660156 -68.3125 56.8125 C-67.11657227 56.83280273 -67.11657227 56.83280273 -65.89648438 56.85351562 C-63.93070033 56.88882911 -61.96526418 56.94263553 -60 57 C-60.03480469 55.80761719 -60.06960937 54.61523438 -60.10546875 53.38671875 C-60.13360753 51.82032658 -60.1609076 50.25391919 -60.1875 48.6875 C-60.21263672 47.90181641 -60.23777344 47.11613281 -60.26367188 46.30664062 C-60.27333984 45.54931641 -60.28300781 44.79199219 -60.29296875 44.01171875 C-60.3086792 43.31522217 -60.32438965 42.61872559 -60.34057617 41.90112305 C-59.8861476 39.36446695 -59.0644881 38.51054428 -57 37 C-55.09887695 36.65942383 -55.09887695 36.65942383 -52.98828125 36.70703125 C-52.23095703 36.71669922 -51.47363281 36.72636719 -50.69335938 36.73632812 C-49.90767578 36.76146484 -49.12199219 36.78660156 -48.3125 36.8125 C-47.11657227 36.83280273 -47.11657227 36.83280273 -45.89648438 36.85351562 C-43.93070033 36.88882911 -41.96526418 36.94263553 -40 37 C-40.03480469 35.80761719 -40.06960937 34.61523438 -40.10546875 33.38671875 C-40.13360753 31.82032658 -40.1609076 30.25391919 -40.1875 28.6875 C-40.21263672 27.90181641 -40.23777344 27.11613281 -40.26367188 26.30664062 C-40.27333984 25.54931641 -40.28300781 24.79199219 -40.29296875 24.01171875 C-40.3086792 23.31522217 -40.32438965 22.61872559 -40.34057617 21.90112305 C-40 20 -40 20 -39.00585938 18.26757812 C-35.77213343 16.22406485 -32.31582886 16.63481357 -28.61328125 16.70703125 C-27.38776802 16.71339851 -27.38776802 16.71339851 -26.13749695 16.71989441 C-23.52882893 16.73668309 -20.92093438 16.77433481 -18.3125 16.8125 C-16.54363095 16.82754663 -14.77474979 16.84123508 -13.00585938 16.85351562 C-8.67003544 16.88403527 -4.3358831 16.94275362 0 17 C0 11.39 0 5.78 0 0 Z M-79 183 C-79 187.62 -79 192.24 -79 197 C-78.67 197 -78.34 197 -78 197 C-78 192.38 -78 187.76 -78 183 C-78.33 183 -78.66 183 -79 183 Z M184 183 C184 187.62 184 192.24 184 197 C184.33 197 184.66 197 185 197 C185 192.38 185 187.76 185 183 C184.67 183 184.34 183 184 183 Z " fill="#2C2523" transform="translate(117,0)" />
    <path d="M0 0 C13.2 0 26.4 0 40 0 C40 6.6 40 13.2 40 20 C59.8 20 79.6 20 100 20 C100 13.4 100 6.8 100 0 C113.2 0 126.4 0 140 0 C140 13.2 140 26.4 140 40 C133.4 40 126.8 40 120 40 C120 46.6 120 53.2 120 60 C113.4 60 106.8 60 100 60 C100 73.2 100 86.4 100 100 C80.2 100 60.4 100 40 100 C40 86.8 40 73.6 40 60 C33.4 60 26.8 60 20 60 C20 53.4 20 46.8 20 40 C13.4 40 6.8 40 0 40 C0 26.8 0 13.6 0 0 Z " fill="#2E2624" transform="translate(100,140)" />
    <path d="M0 0 C19.8 0 39.6 0 60 0 C60 6.6 60 13.2 60 20 C66.6 20 73.2 20 80 20 C80 39.8 80 59.6 80 80 C73.4 80 66.8 80 60 80 C60 86.6 60 93.2 60 100 C46.8 100 33.6 100 20 100 C20 93.4 20 86.8 20 80 C26.6 80 33.2 80 40 80 C40 66.8 40 53.6 40 40 C26.8 40 13.6 40 0 40 C0 46.6 0 53.2 0 60 C-6.6 60 -13.2 60 -20 60 C-20 46.8 -20 33.6 -20 20 C-13.4 20 -6.8 20 0 20 C0 13.4 0 6.8 0 0 Z " fill="#FEFEFE" transform="translate(200,100)" />
    <path d="M0 0 C19.8 0 39.6 0 60 0 C60 6.6 60 13.2 60 20 C66.6 20 73.2 20 80 20 C80 33.2 80 46.4 80 60 C73.4 60 66.8 60 60 60 C60 53.4 60 46.8 60 40 C46.8 40 33.6 40 20 40 C20 53.2 20 66.4 20 80 C26.6 80 33.2 80 40 80 C40 86.6 40 93.2 40 100 C26.8 100 13.6 100 0 100 C0 93.4 0 86.8 0 80 C-6.6 80 -13.2 80 -20 80 C-20 60.2 -20 40.4 -20 20 C-13.4 20 -6.8 20 0 20 C0 13.4 0 6.8 0 0 Z " fill="#FEFEFE" transform="translate(80,100)" />
    <path d="M0 0 C19.8 0 39.6 0 60 0 C60 6.6 60 13.2 60 20 C53.4 20 46.8 20 40 20 C40 26.6 40 33.2 40 40 C46.6 40 53.2 40 60 40 C60 46.6 60 53.2 60 60 C73.2 60 86.4 60 100 60 C100.33 66.6 100.66 73.2 101 80 C86.48 80 71.96 80 57 80 C57 74.39 57 68.78 57 63 C51.53995132 63.11841336 51.53995132 63.11841336 46.08081055 63.27026367 C45.39801025 63.27775635 44.71520996 63.28524902 44.01171875 63.29296875 C43.31522217 63.3086792 42.61872559 63.32438965 41.90112305 63.34057617 C39.36446695 62.8861476 38.51054428 62.0644881 37 60 C36.65942383 58.09887695 36.65942383 58.09887695 36.70703125 55.98828125 C36.71669922 55.23095703 36.72636719 54.47363281 36.73632812 53.69335938 C36.76146484 52.90767578 36.78660156 52.12199219 36.8125 51.3125 C36.82603516 50.51521484 36.83957031 49.71792969 36.85351562 48.89648438 C36.88882911 46.93070033 36.94263553 44.96526418 37 43 C32.38 43 27.76 43 23 43 C23.05220703 44.78857422 23.05220703 44.78857422 23.10546875 46.61328125 C23.13360753 48.17967342 23.1609076 49.74608081 23.1875 51.3125 C23.21263672 52.09818359 23.23777344 52.88386719 23.26367188 53.69335938 C23.27333984 54.45068359 23.28300781 55.20800781 23.29296875 55.98828125 C23.3086792 56.68477783 23.32438965 57.38127441 23.34057617 58.09887695 C22.8861476 60.63553305 22.0644881 61.48945572 20 63 C18.09887695 63.34057617 18.09887695 63.34057617 15.98828125 63.29296875 C15.30548096 63.28547607 14.62268066 63.2779834 13.91918945 63.27026367 C13.05898193 63.24295166 12.19877441 63.21563965 11.3125 63.1875 C8.569375 63.125625 5.82625 63.06375 3 63 C3 68.61 3 74.22 3 80 C-12.18 80 -27.36 80 -43 80 C-43 74.39 -43 68.78 -43 63 C-61.81 63 -80.62 63 -100 63 C-100 62.67 -100 62.34 -100 62 C-98.89792709 61.9845388 -98.89792709 61.9845388 -97.77359009 61.96876526 C-90.85754708 61.87088317 -83.94158638 61.76838202 -77.02569008 61.66066074 C-73.46995791 61.60544085 -69.91421749 61.55202237 -66.35839844 61.50268555 C-62.27269398 61.44591832 -58.18714475 61.38137946 -54.1015625 61.31640625 C-52.82133209 61.29969376 -51.54110168 61.28298126 -50.22207642 61.26576233 C-49.04100311 61.24581711 -47.85992981 61.22587189 -46.64306641 61.20532227 C-45.59937897 61.18977798 -44.55569153 61.1742337 -43.4803772 61.15821838 C-40.99858218 61.16152796 -40.99858218 61.16152796 -39 60 C-36.08300726 59.91301772 -33.19017452 59.88448077 -30.2734375 59.90234375 C-28.97921371 59.90446617 -28.97921371 59.90446617 -27.65884399 59.90663147 C-24.8975277 59.91223812 -22.13629188 59.92479173 -19.375 59.9375 C-17.5052095 59.94251414 -15.63541774 59.9470772 -13.765625 59.95117188 C-9.17702723 59.9613597 -4.58860392 59.98093378 0 60 C0 53.4 0 46.8 0 40 C6.6 40 13.2 40 20 40 C20 33.4 20 26.8 20 20 C13.4 20 6.8 20 0 20 C0 13.4 0 6.8 0 0 Z M21 41 C21 41.33 21 41.66 21 42 C26.94 42 32.88 42 39 42 C39 41.67 39 41.34 39 41 C33.06 41 27.12 41 21 41 Z " fill="#2C2522" transform="translate(140,260)" />
    <path d="M0 0 C3.42375 -0.020625 6.8475 -0.04125 10.375 -0.0625 C11.45313965 -0.071604 12.5312793 -0.08070801 13.64208984 -0.09008789 C14.48980957 -0.09258545 15.3375293 -0.09508301 16.2109375 -0.09765625 C17.51490479 -0.10551147 17.51490479 -0.10551147 18.84521484 -0.11352539 C21 0 21 0 23 1 C23 6.61 23 12.22 23 18 C28.61 18 34.22 18 40 18 C40 33.18 40 48.36 40 64 C34.39 64 28.78 64 23 64 C23 76.21 23 88.42 23 101 C19.31503662 101.73699268 17.12653014 102.10891202 13.57421875 101.87890625 C12.85580811 101.83580322 12.13739746 101.7927002 11.3972168 101.74829102 C10.05590698 101.65632446 10.05590698 101.65632446 8.6875 101.5625 C4.3871875 101.2840625 4.3871875 101.2840625 0 101 C0 94.4 0 87.8 0 81 C-6.6 81 -13.2 81 -20 81 C-20 67.8 -20 54.6 -20 41 C-13.4 41 -6.8 41 0 41 C0 47.6 0 54.2 0 61 C6.6 61 13.2 61 20 61 C20 47.8 20 34.6 20 21 C13.4 21 6.8 21 0 21 C0 14.07 0 7.14 0 0 Z " fill="#2D2523" transform="translate(300,199)" />
    <path d="M0 0 C13.2 0 26.4 0 40 0 C40 13.2 40 26.4 40 40 C46.6 40 53.2 40 60 40 C60 46.6 60 53.2 60 60 C46.8 60 33.6 60 20 60 C20 53.4 20 46.8 20 40 C13.4 40 6.8 40 0 40 C0 26.8 0 13.6 0 0 Z " fill="#8C51CD" transform="translate(240,240)" />
    <path d="M0 0 C13.2 0 26.4 0 40 0 C40 13.2 40 26.4 40 40 C33.4 40 26.8 40 20 40 C20 46.6 20 53.2 20 60 C6.8 60 -6.4 60 -20 60 C-20 53.4 -20 46.8 -20 40 C-13.4 40 -6.8 40 0 40 C0 26.8 0 13.6 0 0 Z " fill="#8C51CD" transform="translate(60,240)" />
    <path d="M0 0 C19.8 0 39.6 0 60 0 C60 13.2 60 26.4 60 40 C40.2 40 20.4 40 0 40 C0 26.8 0 13.6 0 0 Z " fill="#2E2624" transform="translate(140,200)" />
    <path d="M0 0 C6.6 0 13.2 0 20 0 C20 13.2 20 26.4 20 40 C26.6 40 33.2 40 40 40 C40 46.6 40 53.2 40 60 C26.8 60 13.6 60 0 60 C0 53.4 0 46.8 0 40 C-6.6 40 -13.2 40 -20 40 C-20 33.4 -20 26.8 -20 20 C-13.4 20 -6.8 20 0 20 C0 13.4 0 6.8 0 0 Z " fill="#8C51CD" transform="translate(200,260)" />
    <path d="M0 0 C6.6 0 13.2 0 20 0 C20 6.6 20 13.2 20 20 C26.6 20 33.2 20 40 20 C40 26.6 40 33.2 40 40 C33.4 40 26.8 40 20 40 C20 46.6 20 53.2 20 60 C6.8 60 -6.4 60 -20 60 C-20 53.4 -20 46.8 -20 40 C-13.4 40 -6.8 40 0 40 C0 26.8 0 13.6 0 0 Z " fill="#8C51CD" transform="translate(120,260)" />
    <path d="M0 0 C6.6 0 13.2 0 20 0 C20 6.6 20 13.2 20 20 C26.6 20 33.2 20 40 20 C40 33.2 40 46.4 40 60 C33.4 60 26.8 60 20 60 C20 53.4 20 46.8 20 40 C13.4 40 6.8 40 0 40 C0 26.8 0 13.6 0 0 Z " fill="#8C51CD" transform="translate(280,200)" />
    <path d="M0 0 C6.6 0 13.2 0 20 0 C20 13.2 20 26.4 20 40 C13.4 40 6.8 40 0 40 C0 46.6 0 53.2 0 60 C-6.6 60 -13.2 60 -20 60 C-20 46.8 -20 33.6 -20 20 C-13.4 20 -6.8 20 0 20 C0 13.4 0 6.8 0 0 Z " fill="#8C51CE" transform="translate(40,200)" />
    <path d="M0 0 C19.8 0 39.6 0 60 0 C60 6.6 60 13.2 60 20 C40.2 20 20.4 20 0 20 C0 13.4 0 6.8 0 0 Z " fill="#8C51CE" transform="translate(140,240)" />
    <path d="M0 0 C19.8 0 39.6 0 60 0 C60 6.6 60 13.2 60 20 C40.2 20 20.4 20 0 20 C0 13.4 0 6.8 0 0 Z " fill="#8C51CE" transform="translate(140,180)" />
    <path d="M0 0 C13.2 0 26.4 0 40 0 C40.495 9.405 40.495 9.405 41 19 C40 20 40 20 36.21459961 20.11352539 C34.52717271 20.11336622 32.83974095 20.10766917 31.15234375 20.09765625 C29.82270348 20.09553383 29.82270348 20.09553383 28.46620178 20.09336853 C25.62326746 20.08775215 22.78041069 20.07519691 19.9375 20.0625 C18.01497509 20.05748711 16.09244896 20.05292384 14.16992188 20.04882812 C9.44656036 20.03862648 4.72336742 20.01905437 0 20 C0 13.4 0 6.8 0 0 Z " fill="#2E2624" transform="translate(260,180)" />
    <path d="M0 0 C6.6 0 13.2 0 20 0 C20 13.2 20 26.4 20 40 C13.4 40 6.8 40 0 40 C0 26.8 0 13.6 0 0 Z " fill="#8C51CE" transform="translate(200,200)" />
    <path d="M0 0 C6.6 0 13.2 0 20 0 C20 13.2 20 26.4 20 40 C13.4 40 6.8 40 0 40 C0 26.8 0 13.6 0 0 Z " fill="#8C51CE" transform="translate(120,200)" />
    <path d="M0 0 C6.6 0 13.2 0 20 0 C20 6.6 20 13.2 20 20 C13.4 20 6.8 20 0 20 C0 13.4 0 6.8 0 0 Z " fill="#8C50CE" transform="translate(240,200)" />
    <path d="M0 0 C6.6 0 13.2 0 20 0 C20 6.6 20 13.2 20 20 C13.4 20 6.8 20 0 20 C0 13.4 0 6.8 0 0 Z " fill="#8C51CE" transform="translate(80,200)" />
    <path d="M0 0 C6.6 0 13.2 0 20 0 C20 6.6 20 13.2 20 20 C13.4 20 6.8 20 0 20 C0 13.4 0 6.8 0 0 Z " fill="#8B50CD" transform="translate(260,180)" />
    <path d="M0 0 C6.6 0 13.2 0 20 0 C20 6.6 20 13.2 20 20 C13.4 20 6.8 20 0 20 C0 13.4 0 6.8 0 0 Z " fill="#8C50CD" transform="translate(60,180)" />
    <path d="M0 0 C0.33 0 0.66 0 1 0 C1 26.4 1 52.8 1 80 C0.67 80 0.34 80 0 80 C0 53.6 0 27.2 0 0 Z " fill="#000000" transform="translate(322,100)" />
    <path d="M0 0 C0.33 0 0.66 0 1 0 C1 26.4 1 52.8 1 80 C0.67 80 0.34 80 0 80 C0 53.6 0 27.2 0 0 Z " fill="#000000" transform="translate(17,100)" />
</svg>